<svg width="87" height="86" viewBox="0 0 87 86" xmlns="http://www.w3.org/2000/svg"><path d="M16.915 74.51c.585-.72 1.045-.716 1.668-.213l-1.507 1.854c-.632-.5-.71-.96-.16-1.64m-.228-4.37c-.837 1.03-.052 2.07.562 2.716-.743-.422-1.887-.686-2.524.1-.872 1.07-.413 2.14.876 3.18l3.06 2.465 4.83-5.934-2.99-2.407c-1.122-.906-2.827-1.334-3.814-.117m2.23 1.8c.63-.777 1.335-.723 1.843-.31l-1.72 2.112c-.63-.51-.79-.976-.12-1.802zm-1.22-4.136l-5.868 4.92-1.79-2.114 5.024-4.213-1.654-1.954.85-.714L17.7 67.8zm-3.857-4.67l-6.62 3.86-2.7-4.59.95-.55 1.3 2.2 1.785-1.04L7.308 60.9l.946-.553 1.244 2.113 1.986-1.156-1.294-2.202.954-.56 2.7 4.59zm-4.41-9.09L7.91 56.01l1.965-.678.907 2.612-7.26 2.495-.904-2.62 2.664-.917-3.36-1.09-.74-2.134 4.12 1.807 3.084-4.44L9.42 54.03zM8.42 50.39L.852 51.678.39 48.952l7.56-1.282.468 2.724zm-.74-8.547L3.664 44.91l4.023-.007.004 1.914-7.67.015v-2.386l3.92-3.065-3.93.01L0 39.48l7.674-.013.007 2.386zm1.194-7.315c-.514 2.158-2.254 4.05-4.914 3.42-2.66-.63-3.38-2.99-2.84-5.25.33-1.39.653-2.1 1.114-2.716l1.288.55-.223.954c-.6.03-1.06.3-1.25 1.086-.29 1.198.89 2.186 2.57 2.585 1.673.394 3.096.113 3.39-1.114.05-.204.074-.5.074-.5l-2.68-.632.64-2.69 3.09.73c.18.707.12 1.968-.266 3.58zm1.06-4.145L2.99 27.13l2.276-4.808.994.464-1.092 2.31 1.87.88 1.05-2.22.992.468-1.048 2.217 2.08.98 1.095-2.31 1.002.47-2.28 4.81zm3.182-16.648l4.846 4.427-1.886 2.046-4.845-4.426-1.37 1.485-.8-.74 4.627-5.02.808.74-1.37 1.486zm6.78 2.533l-4.582-6.128L19.6 6.968l.655.876-2.06 1.524 1.237 1.653 1.974-1.46.656.88-1.974 1.467 1.374 1.838 2.057-1.523.66.884-4.29 3.176zm8.594-5.378l-2.14-1.28.89 1.867-2.505 1.19-3.295-6.904 2.507-1.186 1.21 2.535.715-3.443 2.052-.98-1.348 4.28 4.776 2.56-2.862 1.353zm8.243-2.595L32.866 5.05l.868 3.91-1.877.412L30.2 1.914l2.34-.517 3.847 3.156L35.54.738l1.875-.412 1.658 7.456-2.34.515zm3.184-.436L39.52.23l2.774-.14.396 7.628-2.773.14zm3.606-.6l.44-1.6.81.074c-.016.694.614 1.22 1.318 1.284.65.06 1.18-.11 1.24-.675.105-1.1-3.45-1.657-3.212-4.127.136-1.45 1.66-2.215 3.28-2.06.86.08 1.964.41 2.59.825l-.45 1.31-.686-.07c-.03-.58-.45-1.062-1.1-1.124-.557-.052-1.165.103-1.22.678-.1 1.02 3.56 1.44 3.32 3.97-.152 1.61-1.674 2.45-3.746 2.253-.994-.095-2.074-.47-2.58-.75zM54.276 9.5l-.703-2.385-.618 1.98-2.65-.82L52.58.98l2.65.82-.836 2.682 2.874-2.05 2.166.67-3.904 2.236 1.77 5.102-3.024-.935zM63 9.92l-1.09-.64 1.528-1.335-.44 1.976zm1.79 4.83l1.412-8.047-2.18-1.287-6.4 5.11 1.665.98L61.1 9.96l1.71 1.01-.49 2.327 2.47 1.454zm6.547 6.802l2.64-2.15-1.37-1.667-2.64 2.15-1.757-2.14 5.942-4.834 1.757 2.14-2.46 2 1.37 1.67 2.45-1.998 1.756 2.135-5.943 4.834-1.757-2.14zm8.25 6.623c-1.747.802-2.973.813-3.464-.248-.478-1.03.31-1.985 2.057-2.788 1.895-.87 3.043-.81 3.518.22.478 1.03-.214 1.94-2.112 2.812zM84.48 26.1c.37-.17.53-.59.36-.96a.73.73 0 0 0-.962-.357.726.726 0 1 0 .609 1.316m-.98-2.12a.725.725 0 1 0-.612-1.316.715.715 0 0 0-.356.96c.163.36.6.52.962.355m-2.707 6.8c2.484-1.14 2.875-3.25 1.702-5.78-1.17-2.52-3.045-3.605-5.527-2.464-2.48 1.14-2.714 3.624-1.71 5.788 1.176 2.538 3.05 3.597 5.534 2.456zm-2.77 6.472c-.39-2.183.45-4.605 3.143-5.08 2.69-.478 4.292 1.405 4.7 3.692.25 1.405.24 2.185.06 2.933l-1.4.002-.17-.964c.53-.264.85-.694.705-1.49-.215-1.21-1.688-1.654-3.393-1.354-1.693.303-2.887 1.12-2.665 2.363.036.205.13.49.13.49l2.71-.484.486 2.72-3.125.558c-.447-.577-.892-1.757-1.184-3.39zM78.49 44c.037-.995.356-2.09.608-2.604l1.623.347-.03.808c-.69.03-1.18.69-1.21 1.39-.02.64.18 1.167.75 1.19 1.11.042 1.467-3.52 3.956-3.425 1.468.056 2.32 1.528 2.256 3.147-.034.86-.3 1.976-.683 2.624l-1.34-.377.03-.685c.582-.065 1.04-.508 1.07-1.16.02-.554-.17-1.15-.748-1.173-1.036-.04-1.25 3.62-3.805 3.522-1.625-.06-2.55-1.53-2.47-3.596zm-1.04 8.213l2.352-.836-2.018-.5.672-2.682 7.446 1.847-.67 2.68-2.737-.676 2.22 2.737-.548 2.19-2.467-3.75-5.016 2.047.766-3.057zm.068 9.988c-1.714-.86-2.483-1.81-1.955-2.85.516-1.01 1.757-.99 3.47-.12 1.865.936 2.527 1.87 2.013 2.885-.516 1.01-1.662 1.034-3.528.096zm-1.3 2.56c2.44 1.23 4.345.23 5.608-2.26 1.26-2.47.95-4.61-1.49-5.84-2.44-1.23-4.538.13-5.62 2.26-1.27 2.5-.94 4.62 1.502 5.85zm-3.952-1.31l5.934 4.84-1.762 2.14-5.077-4.144-1.62 1.978-.853-.7 3.388-4.11zm-4.947 9.78l.98-.79.72 1.89-1.71-1.1zm-5.18-.03l7.073 4.14 1.974-1.58L68.634 68l-1.502 1.203.816 2.233-1.548 1.242-2.016-1.275-2.24 1.79zM35.9 79.79c-.17.91-.576 1.124-1.363.98l.433-2.343c.8.144 1.086.505.93 1.364zm2.3 3.737c.24-1.3-.946-1.842-1.797-2.115.855.018 1.988-.296 2.17-1.29.252-1.35-.667-2.076-2.296-2.376l-3.872-.71-1.392 7.512 3.778.693c1.43.27 3.13-.17 3.41-1.71m-2.82-.52c-.18.99-.82 1.27-1.47 1.16l.5-2.677c.8.147 1.17.48.975 1.525zm9.14-3.55L44.45 86l-2.785-.02.064-6.547-2.03-.02.01-1.094 6.836.063-.01 1.095-2.026-.02zm8.99 5.41l-.7-3.32-2.12.445.7 3.32-2.717.568-1.574-7.476 2.717-.565.65 3.084 2.118-.44-.65-3.087 2.72-.567 1.574 7.477-2.72.57zm-27.44-5.15c.807 0 1.46-.65 1.46-1.455 0-.8-.654-1.453-1.46-1.453-.807 0-1.46.66-1.46 1.46 0 .804.653 1.453 1.46 1.453zm34.7.038c.807 0 1.46-.652 1.46-1.453 0-.803-.653-1.454-1.46-1.454-.806 0-1.46.65-1.46 1.454 0 .8.654 1.453 1.46 1.453zm-47.81-38.28l3.134.01s.3-.025.574.108c.277.133.67.392.786.483.113.09.587.564.7.85.114.28.074.532.074.532v2.75h-3.342s-.36-.023-.467-.062c-.107-.04-.458-.157-.755-.417 0 0-.442-.502-.5-.706 0 0-.207-.44-.203-.5.01-.055 0-3.04 0-3.04zm18.62 5.665l3.135.008s.297-.023.573.11c.276.13.67.39.783.484.116.09.59.566.705.847.113.286.07.54.07.54v2.74h-3.34s-.362-.024-.468-.063c-.104-.037-.456-.157-.753-.418 0 0-.442-.5-.5-.704 0 0-.206-.44-.203-.497.005-.06 0-3.044 0-3.044zm23.815-.027l-3.137.01s-.295-.025-.572.107a5.907 5.907 0 0 0-.784.482c-.11.093-.58.563-.7.85-.11.285-.07.536-.07.536v2.744h3.34s.368-.022.47-.062c.108-.04.458-.16.75-.41 0 0 .45-.502.506-.707 0 0 .205-.44.204-.5-.007-.055 0-3.04 0-3.04zm-17.615.022l3.13.01s.293-.022.57.108c.276.133.67.39.785.484.112.09.587.56.702.85.113.28.07.53.07.53v2.74H39.7s-.36-.023-.467-.063c-.106-.04-.458-.157-.752-.417 0 0-.44-.5-.5-.705 0 0-.203-.445-.2-.5v-3.043zm11.43 0l-3.14.01s-.295-.022-.57.108a5.39 5.39 0 0 0-.785.484c-.114.09-.59.56-.703.85-.115.28-.072.53-.072.53v2.74h3.34s.363-.023.47-.063c.105-.04.456-.157.75-.417 0 0 .448-.5.504-.705 0 0 .204-.445.202-.5-.004-.057 0-3.043 0-3.043zm-30.058.012l3.133.01s.3-.03.573.1c.276.132.672.392.785.484.114.09.59.562.7.847.115.28.072.538.072.538v2.74h-3.34s-.36-.02-.466-.06c-.106-.04-.458-.16-.755-.42 0 0-.446-.5-.5-.705 0 0-.207-.444-.203-.5.004-.055 0-3.04 0-3.04zm6.2 0h3.132s.297-.026.573.11c.276.13.67.39.783.48.115.09.59.57.703.85.113.28.07.54.07.54v2.74h-3.34s-.36-.027-.467-.066c-.107-.04-.458-.158-.755-.42 0 0-.442-.5-.5-.705 0 0-.21-.444-.2-.5v-3.04zm42.44-.04h-3.136s-.297-.022-.57.11c-.28.13-.67.39-.788.484-.114.09-.588.564-.703.846-.11.286-.07.54-.07.54v2.74h3.34s.364-.023.47-.06c.103-.038.455-.156.75-.42 0 0 .446-.496.5-.702 0 0 .21-.446.206-.5-.002-.06 0-3.04 0-3.04zm-6.18.02l-3.136.01s-.298-.03-.573.1c-.277.135-.67.394-.786.484-.113.09-.587.564-.7.85-.116.285-.07.534-.07.534v2.743h3.34s.36-.02.465-.06c.103-.04.455-.157.75-.415 0 0 .445-.505.5-.708 0 0 .21-.444.206-.5-.006-.056 0-3.04 0-3.04zm-48.68-.027l3.132.004s.297-.023.573.11c.276.133.67.394.785.484.11.094.585.565.7.85.115.28.07.536.07.536v2.74H14.86s-.365-.022-.47-.06c-.104-.04-.455-.156-.752-.42 0 0-.444-.5-.5-.703 0 0-.208-.443-.203-.5.003-.054 0-3.04 0-3.04zm61.022-.016l-3.136.006s-.298-.025-.574.11c-.273.132-.67.392-.783.48-.11.093-.585.568-.7.85-.115.286-.07.537-.07.537v2.743h3.34s.364-.025.47-.063c.104-.038.457-.157.753-.42 0 0 .442-.5.5-.704 0 0 .206-.44.203-.5-.007-.055 0-3.04 0-3.04zm-30.51 5.45H37.44v7.215s-.018 1.513-1.235 1.513c-1.216 0-13.555-.015-13.555-.015l.002 2.725H64.6l.012-2.753-13.9-.005c-1.217 0-1.2-1.463-1.2-1.463V52.54H43.45zm-11.89.283l3.136.008s.295-.02.57.11c.276.134.67.395.786.48.114.096.587.57.7.85.116.287.073.54.073.54v2.74h-3.34s-.36-.023-.47-.062c-.103-.04-.46-.16-.753-.42 0 0-.446-.5-.503-.707 0 0-.204-.44-.2-.5.005-.05 0-3.04 0-3.04zm-12.42.007l3.133.01s.297-.024.574.11c.277.132.67.392.786.48.112.096.586.57.7.85.115.285.073.536.073.536v2.74h-3.34s-.36-.02-.47-.06c-.106-.042-.458-.156-.75-.42 0 0-.447-.5-.504-.704 0 0-.207-.44-.2-.5.002-.06 0-3.04 0-3.04zm6.2 0l3.134.01s.295-.027.572.106c.275.13.67.39.784.482.116.09.587.56.703.85.114.28.07.53.07.53v2.744h-3.34s-.36-.027-.466-.067c-.103-.04-.455-.16-.75-.417 0 0-.446-.502-.5-.706 0 0-.208-.44-.204-.5.005-.054 0-3.04 0-3.04zm30.07-.02l-3.137.006s-.294-.024-.57.11a5.33 5.33 0 0 0-.785.482c-.114.09-.59.56-.703.843-.118.288-.074.54-.074.54v2.74h3.34s.364-.02.47-.06c.106-.04.457-.157.75-.42 0 0 .448-.5.504-.705 0 0 .21-.44.206-.5-.007-.056 0-3.04 0-3.04zM67.81 52.8l-3.133.008s-.298-.023-.573.11c-.278.134-.67.394-.786.48-.114.095-.588.57-.703.85-.11.286-.068.54-.068.54v2.74h3.337s.36-.023.47-.062c.104-.04.456-.16.752-.42 0 0 .445-.5.5-.706 0 0 .21-.443.205-.5V52.8zm-6.18.02l-3.13.01s-.3-.023-.575.105c-.276.133-.67.394-.785.484-.11.09-.584.563-.7.845-.112.287-.07.54-.07.54v2.743h3.34s.36-.025.465-.067c.106-.04.46-.156.753-.42 0 0 .445-.5.5-.705 0 0 .21-.44.203-.496v-3.04zm-30.037-11.3l3.133.01s.297-.024.573.11c.27.13.67.39.78.48.11.09.586.565.7.85.116.286.07.537.07.537v2.74h-3.34s-.36-.02-.464-.062c-.108-.04-.46-.154-.756-.418 0 0-.444-.5-.5-.704 0 0-.207-.442-.202-.5.003-.057 0-3.04 0-3.04zm23.813-.023l-3.134.007s-.297-.023-.574.11c-.278.134-.67.393-.786.484-.115.09-.59.564-.702.85-.114.28-.07.533-.07.533v2.75h3.338s.364-.024.47-.06c.104-.04.455-.16.753-.42 0 0 .448-.5.505-.705 0 0 .206-.444.202-.5-.005-.057 0-3.04 0-3.04zm-17.613.02l3.134.007s.296-.02.572.11c.27.136.67.394.78.484.112.094.59.565.7.85.114.283.07.536.07.536v2.743l-3.34-.002s-.362-.02-.467-.06c-.105-.04-.457-.158-.755-.42 0 0-.44-.5-.5-.705 0 0-.205-.44-.2-.5.004-.054 0-3.04 0-3.04zm11.433 0l-3.135.007s-.29-.02-.57.11c-.272.136-.67.394-.78.484-.114.094-.59.565-.702.85-.113.283-.07.536-.07.536v2.743l3.34-.002s.363-.02.468-.06c.106-.04.458-.158.755-.42 0 0 .443-.5.5-.705 0 0 .207-.44.204-.5-.004-.054 0-3.04 0-3.04zm-30.056.012h3.137s.297-.028.573.107c.275.134.67.393.784.486.113.09.587.565.702.846.115.284.072.537.072.537v2.74H21.1s-.365-.02-.47-.06c-.105-.04-.457-.156-.754-.42 0 0-.444-.5-.502-.7 0 0-.206-.445-.202-.5.004-.058 0-3.04 0-3.04zm6.2-.01l3.14.01s.293-.028.57.11c.274.13.67.39.784.48.114.09.587.563.702.85.114.284.072.54.072.54v2.74h-3.343s-.36-.02-.466-.068a2.199 2.199 0 0 1-.758-.415s-.445-.5-.5-.703c0 0-.208-.444-.204-.5.002-.06 0-3.042 0-3.042zm42.44-.036l-3.132.01s-.295-.025-.573.106c-.277.13-.67.395-.783.484-.115.092-.59.566-.702.85-.114.284-.07.535-.07.535v2.742h3.34s.36-.026.466-.066c.105-.04.456-.156.752-.417 0 0 .446-.5.502-.705 0 0 .206-.44.203-.5-.003-.06 0-3.043 0-3.043zm-6.18.025l-3.132.007s-.297-.026-.574.106c-.276.13-.67.39-.782.483-.114.09-.59.565-.702.846-.115.287-.073.538-.073.538v2.744h3.34s.363-.023.467-.06c.11-.04.46-.16.758-.42 0 0 .444-.5.5-.704 0 0 .206-.445.202-.5-.005-.058 0-3.04 0-3.04zm12.345-.04l-3.134.01s-.3-.027-.57.11a5.22 5.22 0 0 0-.786.48c-.113.09-.585.565-.7.85-.113.284-.072.535-.072.535v2.74h3.34s.363-.02.467-.06c.107-.04.456-.16.754-.42 0 0 .445-.5.5-.706 0 0 .207-.44.203-.5v-3.04zm-42.37-5.595l3.134.01s.293-.026.57.11c.272.13.67.39.78.48.113.09.59.57.7.85.115.286.072.536.072.536v2.74h-3.34s-.363-.02-.468-.06c-.105-.038-.457-.156-.754-.416 0 0-.445-.5-.5-.703 0 0-.204-.446-.2-.503.003-.053 0-3.04 0-3.04zm23.813-.023l-3.135.006s-.292-.02-.57.11c-.274.134-.67.392-.783.484-.116.093-.587.564-.7.85-.117.284-.075.536-.075.536v2.744l3.34-.003s.363-.02.47-.06c.105-.04.46-.156.753-.42 0 0 .447-.5.503-.703 0 0 .21-.443.207-.5-.004-.057 0-3.04 0-3.04zm-17.612.023l3.133.007s.292-.026.57.108c.276.135.67.39.785.487.113.09.587.564.702.847.113.285.07.538.07.538v2.74h-3.34s-.36-.024-.468-.063c-.105-.038-.457-.156-.75-.417 0 0-.447-.5-.5-.707 0 0-.21-.44-.205-.498v-3.04zm11.43 0l-3.132.007s-.297-.026-.575.108c-.28.135-.67.39-.788.487-.115.09-.59.564-.702.847-.11.285-.07.538-.07.538v2.74h3.34s.36-.024.47-.063c.105-.038.456-.156.753-.417 0 0 .447-.5.503-.707 0 0 .207-.44.202-.498-.005-.058 0-3.04 0-3.04zm-30.053.01l3.14.006s.298-.023.57.11c.28.134.67.395.786.484.11.09.584.566.7.85.113.28.07.533.07.533v2.745h-3.34s-.36-.023-.468-.062a2.127 2.127 0 0 1-.754-.42s-.445-.5-.5-.7c0 0-.207-.443-.204-.5.007-.057 0-3.04 0-3.04zm6.2-.007l3.14.01s.297-.028.573.105c.276.13.67.39.784.48.113.092.59.566.7.85.115.284.07.536.07.536V40.6h-3.34s-.363-.024-.47-.06c-.102-.04-.455-.16-.752-.42 0 0-.443-.503-.502-.708 0 0-.206-.44-.202-.5.005-.054 0-3.04 0-3.04zm42.445-.03l-3.135.003s-.297-.023-.574.11c-.28.13-.67.39-.788.48-.113.09-.587.57-.702.85-.113.285-.07.536-.07.536v2.74h3.34s.36-.024.47-.06c.103-.04.454-.16.752-.42 0 0 .442-.503.498-.704 0 0 .21-.447.206-.505-.003-.057 0-3.038 0-3.038zm-6.18.02l-3.134.005s-.297-.027-.573.105a5.47 5.47 0 0 0-.78.484c-.113.09-.587.562-.7.85-.117.28-.075.532-.075.532v2.744h3.343s.36-.02.467-.06c.104-.04.456-.157.752-.42 0 0 .442-.5.5-.703 0 0 .206-.444.203-.5-.004-.06 0-3.04 0-3.04zm-30.063-5.62l3.135.006s.296-.02.572.11c.275.134.67.39.783.486.116.09.59.564.705.85.112.282.07.533.07.533v2.74h-3.342s-.36-.02-.466-.06c-.105-.04-.456-.16-.753-.42 0 0-.45-.5-.507-.706 0 0-.203-.444-.2-.5.005-.06 0-3.04 0-3.04zm23.813-.027l-3.134.01s-.295-.024-.575.108a5.85 5.85 0 0 0-.786.484c-.11.09-.586.564-.7.85-.113.283-.07.534-.07.534v2.745h3.34s.36-.022.467-.062c.105-.04.458-.16.753-.418 0 0 .444-.503.5-.707 0 0 .207-.443.203-.5-.005-.056 0-3.042 0-3.042zm-17.614.023l3.136.004s.296-.02.572.11c.274.134.67.393.784.486.112.09.586.563.7.847.114.283.07.534.07.534v2.743h-3.338s-.363-.02-.468-.06c-.105-.04-.457-.156-.753-.42 0 0-.444-.5-.502-.7 0 0-.203-.44-.2-.5.005-.057 0-3.04 0-3.04zm11.434 0l-3.135.004s-.298-.02-.57.11a5.44 5.44 0 0 0-.788.486c-.113.09-.59.563-.7.847-.114.283-.072.534-.072.534v2.743h3.34s.363-.02.467-.06c.104-.04.46-.156.753-.42 0 0 .445-.5.5-.7 0 0 .208-.44.204-.5-.004-.057 0-3.04 0-3.04zm-30.054.01l3.134.01s.295-.03.574.104c.275.133.67.39.784.483.116.09.59.564.7.85.118.285.075.534.075.534v2.74h-3.34s-.36-.022-.464-.06c-.105-.04-.457-.157-.754-.417 0 0-.444-.5-.502-.703 0 0-.204-.445-.2-.5.003-.058 0-3.04 0-3.04zm6.2-.006l3.134.01s.297-.025.574.11c.276.13.67.39.785.48.116.093.59.567.7.85.117.282.075.54.075.54v2.735h-3.34s-.362-.02-.468-.06c-.107-.038-.458-.157-.756-.418 0 0-.44-.498-.5-.704 0 0-.205-.444-.202-.5.005-.06 0-3.04 0-3.04zm42.44-.03l-3.134.006s-.3-.023-.575.107a5.61 5.61 0 0 0-.782.486c-.112.09-.588.564-.702.846-.11.29-.07.54-.07.54v2.74l3.34-.002s.368-.022.47-.06c.107-.04.46-.157.75-.418 0 0 .45-.5.5-.706 0 0 .21-.44.21-.5-.003-.06 0-3.04 0-3.04zm-9.317.03s-.295-.03-.572.105c-.273.133-.67.392-.783.483-.11.09-.586.562-.7.85-.115.284-.07.534-.07.534v2.74h3.34s.362-.026.47-.064c.102-.04.454-.16.75-.415 0 0 .445-.502.5-.71 0 0 .208-.44.206-.497-.005-.057 0-3.04 0-3.04l-3.137.01zm-26.903-5.6l3.132.01s.295-.024.57.105c.277.133.674.393.786.483.115.093.587.566.7.85.116.285.07.537.07.537v2.745H33.5s-.36-.02-.464-.06c-.105-.04-.456-.16-.753-.42 0 0-.445-.5-.502-.707 0 0-.2-.44-.2-.498.008-.056 0-3.043 0-3.043zm23.81-.02l-3.135.01s-.3-.03-.578.105c-.272.13-.67.39-.78.48-.112.09-.59.564-.7.85-.114.282-.07.535-.07.535v2.74h3.34s.36-.02.466-.06c.105-.04.457-.16.753-.416 0 0 .444-.5.5-.705 0 0 .207-.445.2-.5v-3.04zm-17.614.02l3.135.01s.297-.03.573.105c.275.13.67.392.783.48.118.092.59.566.707.852.113.282.07.532.07.532v2.743H39.7s-.362-.024-.467-.063c-.105-.04-.457-.16-.753-.42 0 0-.444-.5-.502-.705 0 0-.205-.443-.202-.5.005-.058 0-3.04 0-3.04zm11.433 0l-3.134.01s-.3-.03-.58.105c-.275.13-.67.392-.782.48-.118.092-.59.566-.7.852-.12.282-.077.532-.077.532v2.743h3.34s.364-.024.468-.063c.108-.04.46-.16.757-.42 0 0 .444-.5.502-.705 0 0 .202-.443.2-.5-.006-.058 0-3.04 0-3.04zm-23.853.01l3.135.003s.297-.023.574.11c.27.132.67.39.78.483.11.09.582.562.7.846.11.283.07.534.07.534v2.742h-3.34s-.36-.025-.47-.06c-.106-.04-.457-.16-.755-.42 0 0-.446-.504-.5-.706 0 0-.207-.44-.204-.5.005-.056 0-3.04 0-3.04zm36.262-.016l-3.14.007s-.297-.022-.57.11c-.28.134-.67.39-.79.486-.11.09-.586.563-.7.848-.115.285-.07.538-.07.538v2.74h3.34s.362-.02.47-.06c.103-.04.453-.156.75-.42 0 0 .446-.496.502-.702 0 0 .206-.442.205-.5-.01-.057 0-3.04 0-3.04zm-23.832-5.6l3.135.008s.297-.02.573.11c.277.13.67.39.786.48.11.09.585.57.7.85.114.287.07.538.07.538v2.74h-3.34s-.36-.025-.467-.067c-.107-.037-.458-.156-.755-.415 0 0-.444-.5-.503-.707 0 0-.21-.443-.207-.5.005-.055 0-3.04 0-3.04zm11.433 0l-3.135.008s-.294-.02-.57.11c-.276.13-.67.39-.786.48-.113.09-.586.57-.703.85-.11.287-.07.538-.07.538v2.74h3.34s.36-.025.464-.067c.102-.037.455-.156.752-.415 0 0 .445-.5.502-.707 0 0 .204-.443.2-.5-.003-.055 0-3.04 0-3.04z"/></svg>