<svg class="icon" viewBox="0 0 1024 1024" xmlns="http://www.w3.org/2000/svg" width="200" height="200">
  <path d="M544.512 201.696l2.416 1.936L826.4 441.392a16 16 0 0 1 1.856 22.512l-10.352 12.256a16 16 0 0 1-22.56 1.888l-.032-.032L515.936 240.32a.928.928 0 0 0-.816-.192l-.384.192-274.464 232.576-.256.32-.08.384v309.36c0 .352.192.64.464.8l.48.144h555.744a16 16 0 0 1 16 16V816a16 16 0 0 1-16 16h-555.76a48.944 48.944 0 0 1-48.784-46.16l-.08-2.88V473.6a49.128 49.128 0 0 1 14.88-35.232l2.464-2.24 274.464-232.56a48.736 48.736 0 0 1 60.704-1.872zm8.496 277.92a16 16 0 0 1 22.624 0l11.392 11.376 1.328 1.504a16 16 0 0 1-1.328 21.12l-70.512 70.48h291.872a16 16 0 0 1 16 16v15.936a16 16 0 0 1-16 16H516.8l70.592 70.608a16 16 0 0 1 1.328 21.12l-1.328 1.504-11.28 11.264a16 16 0 0 1-22.624 0L436.096 619.136a16 16 0 0 1 0-22.624z" fill="#5A626A"/>
</svg>