<svg class="icon" viewBox="0 0 1024 1024" xmlns="http://www.w3.org/2000/svg" width="200" height="200">
  <path d="M738.67 211.53c-125.88-118.127-327.534-118.127-453.413 0-125.806 118.125-129.536 310.856-8.338 433.297 78.19-119.442 240.494-159.451 369.371-91.136a272.31 272.31 0 0 1 100.718 91.136c121.198-122.44 117.467-315.245-8.338-433.298zM511.927 869.594l167.131-159.67C648.485 648.192 583.388 608.84 512 608.84c-71.46 0-136.558 39.351-167.131 101.084L512 869.595zM217.966 713.362C98.889 599.625 63.269 428.617 127.707 279.991 192.073 131.438 343.771 34.523 512 34.523s319.927 96.915 384.293 245.468c64.365 148.626 28.818 319.634-90.186 433.371L512 994.523l-294.107-281.16zm340.26-369.59A45.275 45.275 0 0 0 512 299.665c-25.6 0-46.3 19.749-46.3 44.179 0 24.43 20.7 44.251 46.3 44.251 25.527 0 46.226-19.749 46.226-44.251zM512 476.451c-76.58 0-138.679-59.391-138.679-132.607 0-73.143 62.098-132.535 138.679-132.535s138.606 59.392 138.606 132.535c0 73.216-62.025 132.608-138.606 132.608z"/>
</svg>